PathFileType	4	(x/y/z)	S02_P20_T24
DataRate	CameraRate	NumFrames	NumMarkers	Units	OrigDataRate	OrigDataStartFrame	OrigNumFrames
240	240	4	51	mm	240	177	353
Frame#	Time	Sternum			R.Acromium			L.Acromium			Top.Head			R.ASIS			L.ASIS			R.PSIS			L.PSIS			R.Great.Tro			L.Great.Tro			R.Iliac.Crest			L.Iliac.Crest			V.Sacral			R.Thigh.Upper.Post			R.Thigh.Lower.Ant			R.Thigh.Lower.Post			R.Thigh.Upper.Ant			R.Knee.Lat			R.Knee.Med			R.Shank.Upper.Post			R.Shank.Lower.Ant			R.Shank.Lower.Post			R.Shank.Upper.Ant			R.Ankle.Lat			R.Ankle.Med			R.Heel.Upper			R.Heel.Med			R.Heel.Lat			R.Toe.Lat			R.Toe.Med			R.Toe.Tip			L.Thigh.Upper.Post			L.Thigh.Lower.Ant			L.Thigh.Lower.Post			L.Thigh.Upper.Ant			L.Knee.Lat			L.Knee.Med			L.Shank.Upper.Post			L.Shank.Lower.Ant			L.Shank.Lower.Post			L.Shank.Upper.Ant			L.Ankle.Lat			L.Ankle.Med			L.Heel.Upper			L.Heel.Med			L.Heel.Lat			L.Toe.Lat			L.Toe.Med			L.Toe.Tip			Cervical.Spine			Back			
		X1	Y1	Z1	X2	Y2	Z2	X3	Y3	Z3	X4	Y4	Z4	X5	Y5	Z5	X6	Y6	Z6	X7	Y7	Z7	X8	Y8	Z8	X9	Y9	Z9	X10	Y10	Z10	X11	Y11	Z11	X12	Y12	Z12	X13	Y13	Z13	X14	Y14	Z14	X15	Y15	Z15	X16	Y16	Z16	X17	Y17	Z17	X18	Y18	Z18	X19	Y19	Z19	X20	Y20	Z20	X21	Y21	Z21	X22	Y22	Z22	X23	Y23	Z23	X24	Y24	Z24	X25	Y25	Z25	X26	Y26	Z26	X27	Y27	Z27	X28	Y28	Z28	X29	Y29	Z29	X30	Y30	Z30	X31	Y31	Z31	X32	Y32	Z32	X33	Y33	Z33	X34	Y34	Z34	X35	Y35	Z35	X36	Y36	Z36	X37	Y37	Z37	X38	Y38	Z38	X39	Y39	Z39	X40	Y40	Z40	X41	Y41	Z41	X42	Y42	Z42	X43	Y43	Z43	X44	Y44	Z44	X45	Y45	Z45	X46	Y46	Z46	X47	Y47	Z47	X48	Y48	Z48	X49	Y49	Z49	X50	Y50	Z50	X51	Y51	Z51	

177	0.73333	-348.02	1104.8	341.11	-446.6	1336.8	498.84	-460.33	1347.6	204.28	-383.74	1626.1	350.16	-386.28	930.54	442.94	-385.97	922.54	232.67	-597.94	977.85	396.68	-604.79	980.84	323.33	-456.01	822.3	533.42	-513.79	829.53	154.02	-481.01	978.48	506.97	-511.54	974.86	173.92	-629.56	933.11	356.84	-429.84	611.02	502.98	-374.34	539.92	455	-441.19	523.95	480.44	-367.72	626.82	476.83	-421.03	449.14	457.64	-445.07	442.91	317.24	-527	253.79	444.99	-465.76	165.03	418	-530.77	180.97	433.18	-457.49	232.62	436.56	-531.02	88.969	415.46	-525.83	102.93	332.1	-594.58	74.038	362.64	-580.85	42.642	334.23	-589.31	42.449	398.11	-426.51	40.394	435.26	-396.3	34.222	327.24	-347.36	62.087	381.74	-441.35	602.51	166.97	-341.41	557.24	153.36	-404.55	520.46	184.07	-385.78	641.25	141.23	-335.21	474.25	160.84	-306.71	475.18	302.43	-493.17	388.24	188.86	-493.14	277.21	197.65	-539.68	333.29	208.82	-451.27	339.06	179.13	-588.74	228.38	222.5	-570.27	217.26	301.89	-648.18	242.78	265.49	-654.99	220.95	301.78	-668.33	219.52	240.65	-561.9	98.195	196.72	-524.27	94.447	299.43	-476.12	64.261	246.84	-528.15	1405.8	358.79	-606.77	1154.9	359.89
178	0.7375	-342.87	1105.8	341.1	-441.12	1337.8	498.83	-455.16	1348.6	204.35	-378.25	1626.8	350.22	-381.36	931.47	443.34	-380.63	923.9	233.16	-592.74	978.8	396.6	-599.47	981.97	323.23	-451.72	822.74	533.36	-507.99	830.86	154.12	-476.2	979.29	507.07	-506.06	976.26	174.19	-624.41	934.23	356.62	-427.65	611.19	503.01	-372.77	539.49	455.18	-439.83	524.23	480.53	-365.24	626.3	477.05	-420.37	449.21	457.79	-444.25	443.13	317.26	-526.9	254.07	444.93	-465.71	165.21	418.14	-530.74	181.25	433.13	-457.36	232.79	436.7	-530.96	89.087	415.45	-525.76	103.12	332.07	-594.49	74.213	362.66	-580.88	42.788	334.18	-589.28	42.609	398.09	-426.49	40.384	435.26	-396.33	34.226	327.28	-347.32	62.046	381.77	-433.42	603.94	167	-332.97	559.58	154.05	-395.93	522.23	184.39	-378.07	643.16	141.55	-326.09	476.52	161.74	-298.08	477.99	303.23	-482.65	386.91	189.03	-480.09	275.94	198.07	-527.83	331.02	208.8	-439.6	338.7	179.65	-574.74	225	222.56	-556.27	214.4	302.05	-634.79	237.8	265.33	-641.11	215.69	301.48	-654.15	214.01	240.39	-544.38	95.58	196.94	-507.03	92.919	299.77	-457.88	64.035	247.39	-522.74	1406.6	358.9	-601.43	1155.7	360.3
179	0.74167	-337.71	1106.7	341.11	-435.65	1338.8	498.82	-449.99	1349.4	204.42	-372.75	1627.5	350.26	-376.45	932.4	443.75	-375.29	925.22	233.66	-587.54	979.67	396.48	-594.15	983.01	323.09	-447.4	823.13	533.28	-502.14	832.14	154.16	-471.4	980.06	507.14	-500.57	977.58	174.42	-619.25	935.28	356.35	-425.46	611.33	503.03	-371.22	539.04	455.37	-438.48	524.5	480.61	-362.77	625.75	477.28	-419.72	449.27	457.94	-443.49	443.34	317.27	-526.78	254.35	444.88	-465.66	165.38	418.27	-530.71	181.53	433.09	-457.23	232.95	436.83	-530.89	89.203	415.44	-525.7	103.3	332.03	-594.4	74.384	362.67	-580.91	42.933	334.12	-589.24	42.769	398.07	-426.48	40.373	435.26	-396.36	34.227	327.32	-347.28	62.003	381.81	-425.59	605.32	167.07	-324.67	561.82	154.78	-387.45	523.95	184.76	-370.45	644.98	141.89	-317.12	478.71	162.68	-289.63	480.7	304.06	-472.14	385.45	189.22	-467.01	274.61	198.48	-515.93	328.61	208.8	-427.94	338.25	180.18	-560.62	221.51	222.61	-542.14	211.41	302.21	-621.24	232.67	265.17	-627.04	210.27	301.2	-639.79	208.35	240.14	-526.71	92.943	197.14	-489.64	91.368	300.09	-439.54	63.833	247.9	-517.33	1407.4	359	-596.07	1156.5	360.67
180	0.74583	-332.54	1107.6	341.13	-430.21	1339.7	498.81	-444.81	1350.3	204.48	-367.26	1628.1	350.29	-371.54	933.32	444.16	-369.95	926.49	234.17	-582.35	980.47	396.31	-588.83	983.97	322.9	-443.05	823.48	533.2	-496.24	833.37	154.16	-466.61	980.79	507.19	-495.07	978.81	174.6	-614.1	936.23	356.05	-423.27	611.47	503.06	-369.66	538.59	455.57	-437.13	524.76	480.69	-360.29	625.18	477.51	-419.08	449.33	458.09	-442.76	443.54	317.28	-526.66	254.63	444.82	-465.61	165.54	418.39	-530.66	181.81	433.04	-457.1	233.12	436.95	-530.82	89.319	415.41	-525.64	103.48	331.96	-594.3	74.549	362.67	-580.93	43.076	334.07	-589.21	42.927	398.04	-426.46	40.361	435.26	-396.39	34.225	327.36	-347.24	61.958	381.85	-417.87	606.64	167.17	-316.49	563.96	155.53	-379.11	525.58	185.17	-362.91	646.71	142.25	-308.29	480.82	163.65	-281.39	483.3	304.91	-461.65	383.85	189.44	-453.89	273.2	198.89	-504	326.07	208.83	-416.3	337.72	180.71	-546.37	217.9	222.65	-527.88	208.3	302.34	-607.52	227.38	265.01	-612.78	204.72	300.93	-625.23	202.54	239.89	-508.89	90.298	197.32	-472.11	89.805	300.4	-421.09	63.668	248.38	-511.93	1408	359.08	-590.71	1157.2	361.02
